/* XPM */
static char *f370e284d308489fc29bffd67c63f797[] = {
/* columns rows colors chars-per-pixel */
"64 64 31 1 ",
"  c black",
". c #28200C",
"X c #202020",
"o c #2C2C2C",
"O c gray22",
"+ c #403018",
"@ c #000040",
"# c #00004C",
"$ c #000058",
"% c #000064",
"& c #000070",
"* c #00007C",
"= c #484848",
"- c gray33",
"; c #646464",
": c #7C7C7C",
"> c #000088",
", c #000098",
"< c #0000A4",
"1 c #0000B0",
"2 c #0000BC",
"3 c #0000C8",
"4 c #0000E0",
"5 c #0000EC",
"6 c #4040FC",
"7 c gray55",
"8 c #989898",
"9 c gray66",
"0 c #B4B4B4",
"q c #C0C0C0",
"w c #D0D0D0",
/* pixels */
"<<<<<<<<<<<<<<<<<<<<<,,,>**XX<<<<<<<<,>>>>XX<<<<<<<<>>&%X1111,XX",
"<<<><*<<,*,,*,,,**<>****&%$ X<<,,><<,>>>>$ X<212122222,* 11>,>  ",
"<,*>,,,*<<11,*,%>**,,**&%%$ X<,<<>,,*>*<&$ X<122<2312<,* <<1,$  ",
"<><&,&,**,111,%>&%****%$$$% X<,>>,,*>*&$%$ X<21<321<,>>& >&**$  ",
"<>*<<<%,,*,11,>>*%*%%***%$% X<<><<*&&&>%$$ X<2<353<2<,&* ,>&%$  ",
"<,>*11<<,***,>&>$**%%%@@$#$ X<<<>>*&>>>&%$ X<12<22<****& ,*$$$  ",
"<<,>11<,*%%>**,*&&&%%%@@@#$ X<<>*>>>*>*%$$ X<121<11*$$&* ,%$%$  ",
"<,*,>>>,*%%%,**%##&%&*&@@#@ X<,>>&><<*&*$% X<13112<*$$&%        ",
"<>>><*****%$%**$@@#%***%$#@ X<>>&**>>&%$%$ X<12<1<<>,>%$ ,111<  ",
",*><%%&,**%%$>$*@@#%&**&$#@ X,>*&&>>&*%$%$ X<122<2<>>*%% <1,1>  ",
",>,*%%%%******$%%##$$&&$$$@ X,>*&&&>$&$&$$ X<1221<><,*%% ,<>,%  ",
",*,*%%%*%*%*%$&$&$$%%@@@@@@ X,*>&&%%&%$%%$ X<122<,,*>&$$ ,<,&$  ",
",,***&%$$%XXXXXXXXXXXXXXXXXXXXXXXXXXXXXXXXXXXXXXXXXX**$% >>*%&  ",
",*,%%&%*%&X77:::::::::::::::::::::::::::::::::::;;-o&%$$ *&%$$  ",
"          X7;======================================o%$%$        ",
"21<1<<<<<1X:=======================================o*%$$ &33333%",
"1<,<21<><<X:==                                  -==o*&%$ >33423*",
"1,,><<>*,,X:==   Oo     Oo     Oo     Oo    Oo  -==o*&$% <34641*",
"<,<<,,***,X:==   -O     -O     -O     -O    -O  ;==o%$%% <33413&",
">,12<**,,*X:==   ;O     ;O     ;O     ;O    ;O  ;==o&%%$ 1331<1%",
"<>,1<<,**%X:==   ;O     ;O     ;O     ;O    ;O  :==o&$$$ 23313<%",
">*>,<<**,%X:==   ;O     ;O     ;O     ;O    ;O  :==o%$$$ 13121<&",
"<>,*,*,,*&X:==   ;O     ;O     ;O     ;O    ;O  :==o&$%$ 131<,2&",
"1,>1,,,,**X:==   ;O     ;O     ;O     ;O    ;O  :===$%$$ <33133&",
"<>*>>*%*,&X:==   ;O     ;O     ;O     ;O    ;O  :==;%%%$ <31321&",
",*><,*>,*%X:==   ;O     ;O     ;O     ;O    ;O  :==O%$%% <3331<%",
",1,,<<*%*%X:==   ;O     ;O     ;O     ;O    ;O  :==;%%&$ >33311&",
">>**<<>%&$X:==   ;O     ;O     ;O     ;O    ;O  :==;$$$% >3133<%",
",<<>*>>&%$X:==   ;O     ;O     ;O     ;O    ;O  :===$$@@ >33211%",
"><<<**%%$$X:==   ;O     ;O     ;O     ;O    ;O  :==o$&@@ >331,<$",
">><<>*>>&$X:==   ;O     ;O     ;O     ;O    ;O  :==o**$# >3131,$",
"><,&**>>%$X:==-;:;=--   ;O     ;O     ;O    ;O  :==o%*%# >313>>$",
"<,>>*%%$#$X:=========   ;O     ;O     ;O    ;O  :==o>%$# >33>,>$",
",,>*>>&#@@X:=========   ;O     ;O     ;O    ;O  :==o>*&$ &313,,@",
">>*&>>%$##X:=========   ;O     ;O     ;O    ;O  :==o*&%$ &31,,>@",
">%&*%$&$%$X:===== ===   ;O     ;O     ;O    ;O  :==o%%%$ &11,>>@",
",*%*%&$%$#X:== = oo==   ;O     ;O     ;O    ;O  :==o&$$$ &1,>,>@",
">,>&*%$###X:==o= oo==   ;O     ;O     ;O    ;O  :==o$@@$ &1,,,>@",
",*&%$$$$$$X:==== =o==   ;O     ;O     ;O    ;O  :==o%@@# &,,,*,@",
"          X:====o;o==   ;O     ;O     ;O    ;O  :==o%$#$        ",
"XXXXX$$&&>X:=====o===   ;O     ;O     ;O    ;O  :==o$$$$ X&&&&  ",
"X,<1222222X:=========   ;O     ;O     ;O    ;O  :==o%$&$ X&$*$  ",
"X<222221<1X:=========   ;O     ;O     ;O    ;O  :==o     X$$$&  ",
"X<211<1122X:=========   ;O     ;O     ;O    ;O  :==oXXXXXXXXXX  ",
"X222112211X:==          ;O     ;O0    ;O    ;O  :==o222222111<  ",
"X2<1<11111X:==   =O     ;O    000;;   ;O    ;O  :==o<111<<12<>  ",
"X221,>11,2X:==   -O     ;O    ==OO=   ;O oOO;O  :==o<<1<,22,,>  ",
"X22,<21><1X:==   ;O     ;O    888O    ;Oo;::;OO :==o,<1,>*,&>*  ",
"X2222<>2>1X:==   ;O     ;O    ;;;O    ;O q77;OO :==-<1<,,<***&  ",
"X2<2,<<21,X:==   ;O     ;O     :OOOo--;O  w9;O; :==;<,,><>>,%$  ",
"X21,,242<>X:==   ;O     ;O     ;O   77;O Xqw;O; :==O1<,1*&,,%$  ",
"X2<2<464,,X:==   ;O     ;O     ;O  OO7;Oo:- ;O; :==;,*,*>,,##$  ",
"X212<242<*X:==   ;O     ;O     ;O =o;X;O oqo;O= :==;><>*><>###  ",
"X2<2<11>>>X:==   ;O     ;O     ;OX=X;X;O77qq;O  :===*>,,,>&%$#  ",
"X<2<,<**<>X:==   ;O     ;O     ;OX-X;-;O ;O ;O  :==o&*>,*%$%&$  ",
"X2<21>>1**X:==   ;O     ;O     ;OXOOO;;O    ;O  :==o%&*&$@@&%$  ",
"X2<2<,>*%>X:==   ;O     ;O XXXX;OXo==;;O;== ;O  :==o*&%&$@@@%$  ",
"X1<>>><%>%X:==   ;O     ;OXXXXX;OXooOO;O9=-=;O  :==o*%&$&$@@$$  ",
"X1<&%>%<**X:==   ;O    X;OXXXXX;OXXXXX;Oo=-=;O  :==o*$%$$$%%%$  ",
"X<<>>%>$#$X:==   ;O   XX;OXX -7;OXXXXX;Oo=-=;O  7-=o&%$%$%%#%%  ",
"X<,%%%%%%%X;==;;:::::::::::::::::::::::::::::::77-=o**%%%####%XX",
"O*********X-====================================--=o**********Oo",
"---------=Oooooooooooooooooooooooooooooooooooooooooo-----------O",
"+++++++++++++++++++++++++++++++++++++++++++++++++++++++++++++++."
};
