/* XPM */
static char *_622d3a3fca545bab4193e72f54cab22[] = {
/* columns rows colors chars-per-pixel */
"64 64 53 1 ",
"  c black",
". c #382C14",
"X c #202020",
"o c #2C2C2C",
"O c gray22",
"+ c #4C0000",
"@ c #640000",
"# c #700000",
"$ c #7C0000",
"% c #483818",
"& c #543C1C",
"* c #5C4020",
"= c #6C4824",
"- c #744C28",
"; c #484848",
": c gray33",
"> c #646464",
", c gray44",
"< c #7C7C7C",
"1 c #880000",
"2 c #980000",
"3 c #A40000",
"4 c #A80000",
"5 c #D40000",
"6 c #FC0000",
"7 c #80502C",
"8 c #885830",
"9 c #905C34",
"0 c #9C6038",
"q c #A0643C",
"w c #A86840",
"e c #B47044",
"r c #BC7848",
"t c #C87C4C",
"y c #D08050",
"u c #DC8854",
"i c #E88C58",
"p c #F0945C",
"a c #FC9C60",
"s c #FCA470",
"d c gray55",
"f c #989898",
"g c gray66",
"h c #B4B4B4",
"j c #FCB080",
"k c #FCB890",
"l c #FCBC9C",
"z c #FCC4A4",
"x c #FCD4BC",
"c c #C0C0C0",
"v c #D0D0D0",
"b c gainsboro",
"n c #ECECEC",
/* pixels */
"OOOOOOOOOOOOOOOOOOOOOOOOOOOOOOOOOOOOOOOOOOOOOOOOOOOOOOOOOOOOOOOO",
"oooooooooooooooooooooooooooooooooooooooooooooooooooooooooooooooo",
"::::::::::::::::::XXXXX::::;;;;;;;;::::::::::::::::::::::::::::o",
"bbbbbbbbbbbbbbbbbbbbg,X:;gcbbbbbbbvg<;O::,gbbbcgdd,>:;;;;;;;;;:o",
"bbbccccccc<<<<<<<<<<<<<<,,,,,,,,,,,,,,,,,,,,,,,,,,,,,bbbbbvcchfo",
"bbcdfggggg<;;;;;;;;OOOOOOOOOOOOOOOOOOXXXXXXXXXXXXXXXXbbbbbbbbbbo",
"bcggg<dggf<;fffffffffffffffffffffffffffffffffffffff:X,ggddggddgo",
"hcdgdg<gdf<;fffffffffffffffffffffffffffffffffffffff:X,<dgd<dgddo",
"hcfggdgddd<;fffffffffffffffffffffffffffffffffffffff:X,fgdgfgdgfo",
"dcdfdgdgfg<;fffffffffffff<>;;;;;;;<dfffffffffffffff:X,ffggffg<fo",
"dcddfddddd<;ffffffffffff:;;XXXXXXXXX;;<ffffffffffff>X,gdgdgdgdfo",
",cgdfggfdf<;fffffffffff:;XXOO:OOOOOXXX;ffffffffffff>X,dfffdfffd ",
":cdfdgddfg<;ffffffffffut,OOO::d<:O;:OOXXfffffffffff>X,d,,>>:::: ",
":c<ggdfdfg<;ffffffffffajjj,tr,<d>o>,>OoX;ffffffffff>X:::::::;;O ",
":<:::::>,<<Offfffffffujkklj,yr::Oo;:;;oXX>fffffffff>X;;OOoXXXXX ",
"XXXXO;;:::<Offfffffffajkkzj,yOOOOoOOOOoXX;fffffffff>XXXXXXXXXXX ",
"OXXXXXXooo<OffffffffajjkzjjjpOOOOoOOOOoXXofffffffff>XXooOOOOO;:o",
"<,:;OOXXXX<Offfffffftwrszjjjje0087OOOoXXXofffffffff>X::::::,<ggo",
"bbccgd<:::<Offfffffff..8rzjjkspwwww7OXXXoofffffffff,X,O::<fcnnno",
"bbbbbbbbbb<Offffffffkt;rspjzsppuppw9*XXXo;fffffffff,X:O:dcbbhcfX",
"gccvbbbbbb<Offfffffkxjusjjjsppia*wp**XXo;,fffffffff,X:O:gbvccfh<",
"gggfdccgcg<Offffffzxzsaukjsppiusy7s**XXo,ffffffffff,X:O:cbhgffg<",
"ddddgfdfdg<Offffffirrrtauaaaiuuywpr**Xo;fffffffffff,X:O:cbcdfdd>",
"dfdfggggfd<OffffffffX*susaapiutasy-**Xo,fffffffffff,X:X:cbgdddf;",
"ggdgfgdfgg<Offffffff*0jspspitrwy8---**;ffffffffffff,X:X;bbdfggf;",
"ddgdfddddg<Offffffffkaajspptww0ru99-**,ffffffffffff,X:X;bbgdfdd>",
"gddfdgfdgf<Offffffffyspjsaitw00esur8**fffffffffffff,X:X;bbdgfff;",
":::,,ddddd<Offffffffsksuaur090esssprw--ffffffffffff,X:X;bg<::::o",
"::::::::::<Offffffffpsurw0990eussrr97--<dffffffffff,XOX;g<:::::o",
"XXXXOOOOOO<Offfffffffff08880eusrr99977&--,dffffffff,XXXXXXXXXXXX",
"XXXXXXXXXX<Offfffffffffffe0eesr99098-&77---,dffffff,XOOXXXXXXXXX",
":;OOoooXXX,Offfffffffffdyeeys99000-&7qqq9978-,dffff,X:::::::O::o",
":::;;;;;;;,Xfffffffffddyryye00ee-&7qeeeeeee008-,fff,X<dbbbcgoO:o",
":,ghbbbbbb,Xffffffffd,yyrytqee8&7qeeeeeeeeeee08-<ff,Xdhbbcg,oo:o",
";gbbbbbbbb,Xfffffffd,-yqyytte-&0eeeew0700eeeee07-<f,X,gdgd,:Xo:o",
";hbhgggdgd,Xfffffff,7-yqyyte--qeeeewq770000888887-f,X,fddd:OXX:o",
";bbdgdgggd,Xffffffd77-y7qye--eeeeeeq9-70080008888-f,X,dgdd:OXX:o",
";bbgffdfdg,Xffffff,99-0-q-&qeeeeeew97**eeeee00877*f,X,gfgf:OXX:o",
";bbdfdgdfd,Xffffff099-7-qq9eeeeeeeq7**eeyeee0e0--%f,X,ffdf:OXX:o",
";bgddgdddd,Xfffffd099*-8qqeeeeeeeww7*eeyeey09e0-*%f,X,dffg:OXX:o",
";g,,,ddfdg,Xfffff,099--qqrrtteeee07**eyeeye09e8-*%f,X,gfdg:OXX:o",
";:::;,ggdd,Xfffffq099-8qrrttrrr-08**00eeey09qe8-*%f,X,dggd:OXX:o",
";OOXX;::::,Xffffdqq9--qqrrtrrr-088*fbb0yyeq9ee7*%:f,X,gdfd:OXX:o",
":::OXXOOOO,Xffff,q999-qq9-%%rr-8**foo:b5y-09ee-*%,f,X,dfdg:OXX:o",
"::::OXXXXX,Xfffd0099-8qerr%%--8*fobovbbb5-90ee-*%<f,X,fdd,:OXX:o",
":::::OOooo,Xfff,www9-qqrrt7w88*$f:oooo:c4229ee-%*ff,X::::::OXX:o",
":;;:::::::,Xfff00ww--qerrt9w88$36bbbobof421198-%*ff,XOOOOOOOXX:o",
"fcccchf,>:,Xfffew99-7qerrrw8*0225foo:bf<211$#-%**ff,XXXXXXXXXO:o",
"cbbbbbbbbb,Xfffe9w9q9qerrr8*irt7&5fccf<211$#@-%**ff,XXXXXXXXOO:o",
"cbbvvvvvvv,Xffute9-e00888ritqitt7&5542211$#@@+**-ff,XooooooOO::o",
"cbvfddddgg,Xffuyteee00000iiiqqiree&&2211$#@@+**--ff,X:;;;;;;;;Xo",
"cvfddfgggf,Xfffuyyuu000ttiitiriie00&&11$#@@+***-8ff,Xddgggggg<Xo",
"cvdfgdddfd,Xffffuufuueeriirrtiiit00-&1$#@@+***880ff,Xdhbbbbbc:Xo",
"cvgdggdgfd,Xffffffffftteirww00ttt08=&&#@+****-80eff,X,ggddgdd:Xo",
"cvggfdfddd,Xfffffffffpttreeww77778---=@+**--890etff,X,gdgddgd:Xo",
"cvdfdgdgdg,Xffffffffffptttttreew888888+*--890ettaff,X,ddgdfdg:Xo",
"cvgdfdddfd,Xffffffffffffpuuuuuuuttw000-8890ettaafff,X,dfdgdgd:Xo",
"cvdgdfdddd,Xfffffffffffffffpppppppppyyyyyttaaffffff,X,gdfdff>:Xo",
"cvddfddddd,Xffffffffffffffffaaafffffiiiiiiiffffffff,X>>>>>>>::Xo",
"cvgdddddgd,Xfffffffffffffffffffffffffffffffffffffff,X::::::::OXo",
"cvdddgdfdg,X:::::>>>>>>>,,,,,,,,,,,,,,,,,,,,,,,,,,,,XXXXXXXXXXXo",
"fh>>>>>>>>,XXXXXXXXXXXXXXXXXXXXXXXXXXXXXXXXXXXXXXXXXXXXXXXXXXXXo",
":,;;;;OOOOOOOOoXooXXXXXXXXXXXXXXXXXXXXXXXXooooOOOOOOXOOOOOOOOO:o",
"XXXXXXXXXXXXXXXX::;OoooooooooooooooooooooO:::::::::::::::::::::o"
};
