/* XPM */
static char *_533898641322[] = {
/* columns rows colors chars-per-pixel */
"64 64 92 1 ",
"  c #46831B",
". c #49861E",
"X c #4E8B23",
"o c #548E26",
"O c #548E28",
"+ c #56942C",
"@ c #59952E",
"# c #5C992F",
"$ c #5C9731",
"% c #5D9B33",
"& c #5F9C38",
"* c #619631",
"= c #619D36",
"- c #649E39",
"; c #699E3A",
": c #5FA037",
"> c #5FA239",
", c #63A136",
"< c #65A23A",
"1 c #6AA53D",
"2 c #63A93F",
"3 c #6BA83E",
"4 c #73A03E",
"5 c #739F40",
"6 c #65A640",
"7 c #6CA641",
"8 c #6DAA42",
"9 c #64AA42",
"0 c #72A543",
"q c #79A747",
"w c #72AD46",
"e c #78AA47",
"r c #75AE49",
"t c #7AAC4A",
"y c #6FB046",
"u c #6FB349",
"i c #72B046",
"p c #78B347",
"a c #75B24A",
"s c #7AB44D",
"d c #76B84E",
"f c #7BB84E",
"g c #7CB651",
"h c #76B950",
"j c #7DB952",
"k c #7FBA58",
"l c #7FC158",
"z c #81AE4E",
"x c #82B04F",
"c c #83AF50",
"v c #84B453",
"b c #89B656",
"n c #83BB55",
"m c #88BA57",
"M c #87B758",
"N c #8AB759",
"B c #85BD59",
"V c #8BBC5B",
"C c #91BE5E",
"Z c #8FBE61",
"A c #92BE61",
"S c #83C157",
"D c #85C25A",
"F c #8CC25E",
"G c #91C15F",
"H c #8DC461",
"J c #8CC961",
"K c #94C363",
"L c #99C565",
"P c #94C965",
"I c #99C866",
"U c #96C569",
"Y c #99C669",
"T c #96CC69",
"R c #9CCC6B",
"E c #9CD16D",
"W c #9CCF71",
"Q c #9DD271",
"! c #A0CD6E",
"~ c #A1D06E",
"^ c #A1CF71",
"/ c #A3D373",
"( c #A9D474",
") c #A4D874",
"_ c #ADD977",
"` c #A8D77A",
"' c #A5DA79",
"] c #ABDB7B",
"[ c #B0DD7E",
"{ c #AEE17E",
"} c #AEE180",
"| c #B3E381",
/* pixels */
"HkknBBBBkknnwwrrrrrrgggg7770agajHHFJnnBnaaaarrrrsrsrw088&$**gggg",
"krrasatsrrar1111;1<788w8;&&-880wkknkdaaa180711117777--;=OOOO7www",
"nagsfsspaaar77177777rrrw--=-0w8wnnnSgggaw08777778777<,,;OOOO8rww",
"napppfsfaaat1;6;;6;7wwww=-*=3wwwnnnjsasa787717310776,;,=OOOo888w",
"kaapww8invnvtrrtgtst<<<<1111<<<<11<3VVFVBBMMrwpw-<<<1333,<=;8w3w",
"kada8080MVNVcccvccbt=,=-1318,,--===-VLKKAAAAaaat---,8wi88117708w",
"kagaw08wMmbbzzcccbcg,,,,1211<<,,=;=<VKAKCZCCaaaa;<-,88w811138008",
"nagr3388vMbbvgvcvvcg,:=,3811<,,-*=&-FKKKZAACaaar--=<8iw831333838",
"VgnvBBBBGGKVqewwrttr<<<<88882778087wDFVFFKAVBlnj<<-<,<,<<<,<nBnS",
"KVmA/Q')W!RP1,<-17787818iiruriiiapsajSjBHAAKLYIK731<@+@+==-<T/QQ",
"KVVAW^/^RYRK2,<171788113ruirwiwiaiaajSklACAAKLLK3<71%+%@=,-<T!E~",
"LCVA()))!RWT<,<<28332111wrraiiwiadssSSlSHKAKIUUH3<32+@+@%,%<R(/)",
"ngsgFKGGHHJD838788888iw888838838ww88pjggBmBBZHHB8831%%%%<<<2SGFF",
"&O++;1<<7778sfsdaauafffs%%=%#%%%====,<<<8w8whhgapii88yw8wwwy$*#:",
";@$$<1117888dgssiuipffff,#=%%%%%=,,,<<<<8wwwsgaaiwiuy8888iw8=%%,",
"-O$+<1<<7878dgsgiiuahgfd:%:%##%%%:::<<<<8r0wsshhyyrw88888wi8%%%,",
"6@$#<1<13wwwafsattaagkjg&&&&&$%---6>,<<<7wwwahggirrw8888r888==%,",
"Zknj<<;1FGGF3<27FKHKPHHH7570VHZJTWWP&+@@---<BFFVHHHB1*-*88838888",
"HkHS<<,1GTTF<-<4KPKLUYRKq550KYUU'Q'W$+++%,%<FKCKKKUK-=%=2118y8ii",
"HZDk12,1GIIF2<<1FLKLLYYK0550KKLL///R$+@@&,:<VCCLLLKF;%,=17818r8i",
"JBDn;,>1GIIK<,<<GILPLKIL4440KLLL``/W$+++%-=,FGGGLLPF;$*=<3338w8i",
"Bgnftpuw4114nnnxet30nnvfttptbVmMtsgrw88821<680w31<11<1128888iaad",
"Bjnpfggd*+@*VGGV,=:,adppafagvvvz1<<2agfa0178,,,:+@@@38718wiwaaad",
"Bjgjgffa=@**BGGB<,<<aspdasagMvvv7171agas33322<<<@@@=18278rwyipaa",
"Fjvkgshs++@$VFGV;=,,ahggdgdgnvnv1213ahsa1<2<,,;*+$@@1717wwwrraas",
"a8w8ggjgw00qgnng08888w888iwwwww411<1wwrrjnvkaasa<<,2atsfriitrrrt",
"1&*=gMbMAKKHr8yraaar<,-<2888%%==<1<<8317E///YYYPaaiaFKKVkddgqqqt",
"7*=-cNcbVVVBryiiriii<<,<7883,=,-<<<<1630Y!R!LKLGauirFAKVgddatqrt",
"1**-jbbMVHFVp8iiaaai<<<<1888%=%,<<;11<27R~~!IIIKaairFHAZghhgrqqr",
"8--;gjggVVVMiyiiraai,-,,8wi8,,=-3713weeqGPPJVVDnrrwaVVAVaaiitcqg",
"gwww6667vMMv3888rir8%=%=SDDS2<<1sxsfPKIK11<1,---ww8pBVVv,::<ZKAL",
"swww7677vMMvw388wiu8%%%=SDDD<<11sfffGLLF333<,,,<wwwrvVNn>:%;ZKKK",
"awrw3238MbMj8887iwu8&%%&lDDS1,<<pspfHUYK3111,,<<wu8iMVVm,=,7ZKAL",
"awwe2814vbbnw80wpra8=%%&DDFD11<1ffsjPULF7<11-<,<8wwwvMbv<%*1BHZJ",
"e-<<avxnIRRRHHHKKFJV<->-FPKGxxgMIRRIKULF1<<28irw3311tzzt-%-%,<-<",
"8--<xMxnE/^^KKKKLLLK<,<;FPLIbbMb!RRRUKKF<--<iaai<<<1ttzt==%:%#==",
"7--<xbxb!R/RKKAKKKKG<-><JLLLbbcbRR^RKLAF1,,,yaaa<<<3tzzq,%,,,%=,",
"7--<fnvn!!~!LLKLUTTF;==<JILLMbMmWWRRKKKH<,,-iiii<<<<wtte=%%$==%=",
"gwrw003rRR/Rggssgsstee0rKLKC4333ssaggvvs888ykSDl883rFGGC8881,%=,",
"Bsva-==1R//T88838380svvvAKLV;==,;<<<wiiwaaadFJJDp8yaT~!!a8ww2,,,",
"nsga1<:1R~~E88ww83wwxxxvGKKF,,,:1333iuiiaaraDJJDi88aRRRIari82=,,",
"nsga;;=2E~/Ew88www3wszzzGKPF;==;,<,,iaaiaiiiJJJJ8i8iR~~Rruu8=;,,",
"Dsng0w8wFKKFgasa3118BCCVMMnv4113fnnf8113gkjgggggwiurnDmM7887<761",
"DjjjnbMMadssVFKB;<,1E~~!rw8wasqv]{{)$+#%DJJD<,,,i8ww1<111121riii",
"DjgjnmbndhsvCCCB<,;1T~~Trwwwtttz/_]/=@$%DJFD2<,<88iw686111118w8i",
"FjjkMbbbgffjVCCb;,,2E~~Erwweazqv_]]/*#@%DJJD<<<<riuw87821111uwia",
"MadsVVbmpaaaBCFB3<28GLPFarwrtrwaEEQE<%%<lSSl<,,,88881<<2<<2<888i",
"w<,7KLIG3<38bCVVxffa1<3<wtai3388ddddaaaw8888=%$%&%-%=====*%%8888",
"w,,7UULK1<31BCVmfsga2<11rari8638dhddaaiu88y8%##%,,-&=,%=%%=%8888",
"w-,7KYUH31<7mZVVxffd1<<1raar7888agsgriariw88%%%%%,:===,%%=%:1888",
"r7,8JKLH0117MBBBfssa<2<2wrar8313aghsiaii8888$%#:=-=,,:==%%%=3838",
"WTTPjggg<<-<8wwrgjgdrww01112%%$#XXXO8rru8888#%#=gvvgnMMv%%$$<3<3",
"}^(^gadi,<;<8878gjffaiip2<<<=#$@.  .wwuw8838%%%=MmNVAAKV&@$%,<<1",
"}^(Rghsd--=;8088hggdiwrw<<1<=$$@...Xwaar8883=%=;MNNbZAAB%#$$2121",
"}^^^gdaa,,<28888jjjsaiar3<1<@@++    9ww81132%#*=vmMBAHKB$+$+--<<",
"}Y^^VnVn&%$$%-%%<18127<2<<<1DDFV7578PTTPnvnjwwrrknBMqttrrhaaMnnn",
"`/~RGGKV$++@++++$%%$,,==%;=1{{{[ZVCA||||KGGGbnnnBDSh1213JKKTLUIR",
"`~~~GGGV$+@@++++%%==-,-=,,;1___(NbNV`[|]KGGGvjjjBSSk8810VHVKLLLI",
"`//~GFKV$+++++++%%$$%%%&,,,<]{]_ZVVV{}|}KGGHnkjjklBk82<3FKGKTUUR",
"/YIIVKAm%%%&@@@@etar8rrr733iFTTPraagTEEUDBBBpaadVDVBrrttjjvnFKFP",
"UNNmVNNV8832%%#,TE^!TLTGddtatriw*=*=iarrassa8<<3FKKHbbbx8978vVMm",
"UVVVVVNb3373$##=TRY!KLKKaasaaapp====dsssssst3118FKACMMbnr88wMmVV",
"KCCVVVCB8133%%%=TRRRKLKGgasttrpt===;aaagssfa71<8FKKAbMMv888rbVmV",
"UVFVVVCn8883%#%,RQRRLKPKgsafffpf,=;<fnjjssfa8118FKKKMMbnr888VVVF"
};
