/* XPM */
static char *_533898900330[] = {
/* columns rows colors chars-per-pixel */
"64 64 34 1 ",
"  c #291E0F",
". c #2C2010",
"X c #342613",
"o c #3E2D16",
"O c #422F17",
"+ c #433017",
"@ c #463218",
"# c #4A361A",
"$ c #4D391B",
"% c #533D1D",
"& c #583F1F",
"* c #57401E",
"= c #58411F",
"- c #5C4321",
"; c #604623",
": c #634923",
"> c #6E5225",
", c #735727",
"< c #765827",
"1 c #765928",
"2 c #7D5F2A",
"3 c #7F602A",
"4 c #805F2C",
"5 c #82612C",
"6 c #88642F",
"7 c #8C6531",
"8 c #8F6835",
"9 c #906733",
"0 c #956B35",
"q c #986D36",
"w c #956D38",
"e c #986F39",
"r c #9D723B",
"t c #A1753D",
/* pixels */
"rttt6322232322234225qtttttttq90954<50rtrrtrrrtrrtrtrtrtrtrtr5222",
"tttr5223222223222225qtttttttq0q05425qttttttttttttttttttttttr5522",
"rttr5222322322324245rtttttttqqq05245rttttttttttttttttttttttt5222",
"tttt6552333321224545rttrtrrrq0095425qrtrtrrttrttrttttttttttr5222",
"rtttrerr0006-*%=6000qqqq655555552222555555550qqq6656qqqqtttr5523",
"ttttttttqq00-##*9qq0q0q0552225222323553522550qq055250q0qtttr5522",
"rttttttrq000=$$%6qq000q0552222223233333322250000522200qqtttr5323",
"ttttttttq000=$%*6000000955555252223<335325250000555500qqrttr5222",
"tttttttq6555<<<<3555555599900007:===8rqqreerqq0qeeeqrtrrtttr5333",
"tttttttt53332333333322339qq00qq9=##*0ttttttrqq0qtttttttttttr5533",
"tttttttt53333332333333350q0000q8=***0tttttttq0qqtttttttttttr3333",
"wqreeqqq51131212<3<3<3<3700000w8=###9rrqrrrr0090errrrrrrrrrq33<2",
"%$%$$%%$$$$%===========*=;=;----*@+**==========*=&&&***=:=======",
"OOOO+++O++++$$$$$$$$#$$$$$$$#$$$*#*@@**ooo@oooo+OOOO++++$$*$$$$$",
"OOOO@++++++@$$$$$$$$$$$$$$$$$$$$@@***@***ooo++++++++++++$$@$$$$$",
"####@@@@#@@@$$%$$$*$$*%%%%%*%$%%***@*@*@o@*o@++@@#@@@$@@$**$*$**",
"99971,,,,,,,,,,,<,,<600888882,117009<,,,,,,>%$#%4464556466469900",
"tttt6222332332222425rttttttt6233rtrt52333331%$$%6qqq0qqqqqqqtttt",
"tttt6222323222222225rttttttt5323rrtr55332232*##%7qqqq0qqqq0qtttt",
"ttte5222212245355535ettrtttt6223rttr55553332=%%&4qqqqq99q00qqttt",
"56652252==&=60090909qeqetttr63330qqq0999000966674655555555555556",
"32322221&$$%6q0q0q0q00qqrttt52238qqqq0qq0000qq004444242222224444",
"22222222&$$%7q0qqq0qq0qqrttt62230qq0qqqq0qqqqqw04444222225222244",
"35355352=%%&6qq0qqqqqqqqrttt5223900000009099qqqw6455555555555555",
"rrrrrrrrw8w80qqqrrtrrtrttttr633335553552----wrtrrrerrrrrqqrqrrqr",
"tttrttrtttttqqqqtttttttttttt53223333333<%#$-wtttttttrtrttrtttttt",
"trtttttttttteq0wttttrttttttr53333333335<-$$&wtttttttttrttttttttt",
"rrerereererr9998eeeqrerqeere32111311<3<1%$#%8eeeeereerreqqrrrrrq",
"--------*$%%%%%%%%%%%%%%%%%%%*-%********@@@@%%%%%%%%*$%%=-======",
"$$$$$###@o++Oo+o++OOOOOOOOOO#$$$$$@$$$$$@OO+oOoOo++o+o++$$$$$$$*",
"$$$$$$$#o+oo++++++++OO++OOO@#$$$$$$$$$$$OOOOO+O++++o++++$$$$$#$$",
"%%-%%%-%$$$$########O+++@##@%%*%***%*%%%$#########$$###$$*$***$*",
"wewrwewe0www0000wwe8-#$$><<<8w0080ew96966666676990000q0qwwew3111",
"ttrtrtrtttttttttrttr-$$$<325rttttrtteqqqqqqqqqqqttttttrttrtr3333",
"ttttttttttttttttttrr:$#$,222rrttttttq00qqq00qqqqtttttttttttr3233",
"trrtrttrrrrtrrrrrrrr:**-1555etttrrrrq0009q099969ttttrrtrrrrr3232",
"666356556655555565550q0w0000qqqq655555355555-&&;0ttr655555553322",
"33333333333322533333rtrtqq00q00033323333222<&$$%qttr532233323323",
"33333333333322223333etttqq0qqqq0533233312222%#$%0ttt522222322223",
"33333333333354543335qtttq0000000532233332554=&&-0ttr655255332322",
"rere808000609090rerrrttr75555555232233<579006996qqqq090090094222",
"trttewqqqqqqq0qqrtttrttt52332332222333330q0qqqqq0q00qqqqqqq05242",
"ttttqq0q00qw0q0qtrtrtrtt62223232222333330qq0qq0qqqqqqqqqq0q05522",
"rrrr099980889090rrrrrerr51222121<22<1313690996967777767677761111",
"-===*%%%--------&%%&%%*%$$$$$-%-=*****========*%###########$%%%%",
"$$$$+oo+#$###$##OOOOOOOO++++#$$$$$$$$$$$$$$$$$$#@OO@OOOO++++$$$$",
"$$$$++++#$$$$$$#OOO@OOOOo+o+#$$$$$$$$$$$$$$$$$$$@+OOOOOOOO++$$$$",
"**%%$##$%%%-%%*%####@#@##$$$$%%%%%%$$$$$*$*$$*$*#$$#%#%$%$$$**==",
"00w0q9wwwwwwwwwwww882,,188w81111<<<,*$$$><<<<<<<4999qqqqqerqeeee",
"tttrttrttrttrttrtttt6235rttr6332533<*$$*<3525225qqqqtttttttttttt",
"tttttttttrtrtttttttr5333ettt62232222*#$$<32222259qqqtttrtttrtttt",
"trttrrrrrrrrrttttttt6535rttt53235552=*%=<53523259q90qrrqrrrrrtrr",
"reqq6555:---etttttttrrrrrttt5233qrrq977999095222445455555335qqqq",
"q0q05332*$$$wttttttttttttttt5333qtttqqq0qqq05224444422223333qqq0",
"qq005331*#$*ettttttttttttttr6323rttrqq0q0qq052224444222533330q00",
"0qq06332-$$-wrrrrrtrrttttttt5323rtttqqqq000955444555555555560qqq",
"rttrrrrr31,135554556ettttttr5333rrttrttr65350000rrrrrrrrrrrrttrt",
"rttttttr533333334444rttttttt5333rttttttr52338qqqrttttttttttttttt",
"ttrttttr533323334444rtttttrr5333rrtrtttt52330qqqttrttttttttttttt",
"weeeeeew3112112111119qewrrrw31<30qreeeee22126697ww880w08w8w8w8ww",
"*-**-**-&%&&--&&%@##%#%%=;-;$$#$********%%*%$$$$o.XX#$@####$****",
"#$$#$$#$#$##%*&&#OOOOOOO%%*%#+o+@$$$*$$$$$$#@++o. ..o+++++o@$$$@",
"$$%#$$$$$$#%%%&%@OOOOOOO%%&&@o@@$$$$$$$$$$$#@O+o.  .o+++++++$$$$",
"#$$$$$$$$$#%%&%%OOOOOOOO%%%%$ooo@$$$$$$$$$$#@O+o.  .o++++++o$$$$"
};
